<svg width="14" height="14" viewBox="0 0 14 14" fill="none" xmlns="http://www.w3.org/2000/svg"><path d="M6.99388 1.16667C3.77388 1.16667 1.16638 3.78 1.16638 7C1.16638 10.22 3.77388 12.8333 6.99388 12.8333C10.2197 12.8333 12.833 10.22 12.833 7C12.833 3.78 10.2197 1.16667 6.99388 1.16667ZM6.99972 11.6667C4.42138 11.6667 2.33305 9.57834 2.33305 7C2.33305 4.42167 4.42138 2.33334 6.99972 2.33334C9.57805 2.33334 11.6664 4.42167 11.6664 7C11.6664 9.57834 9.57805 11.6667 6.99972 11.6667Z" fill="#646464"/><path d="M7.29138 4.08334H6.41638V7.58334L9.47888 9.42084L9.91638 8.70334L7.29138 7.14584V4.08334Z" fill="#646464"/></svg>