<svg width="30" height="30" viewBox="0 0 30 30" fill="none" xmlns="http://www.w3.org/2000/svg"><path d="M24.0378 19.0752L20.8628 18.7127C20.1003 18.6252 19.3503 18.8877 18.8128 19.4252L16.5128 21.7252C12.9753 19.9252 10.0753 17.0377 8.27529 13.4877L10.5878 11.1752C11.1253 10.6377 11.3878 9.8877 11.3003 9.1252L10.9378 5.9752C10.7878 4.7127 9.7253 3.7627 8.4503 3.7627H6.2878C4.8753 3.7627 3.70029 4.9377 3.78779 6.3502C4.45029 17.0252 12.9878 25.5502 23.6503 26.2127C25.0628 26.3002 26.2378 25.1252 26.2378 23.7127V21.5502C26.2503 20.2877 25.3003 19.2252 24.0378 19.0752Z"/></svg>