<svg width="22" height="22" viewBox="0 0 22 22" fill="none" xmlns="http://www.w3.org/2000/svg"><path d="M8.25065 20.1663C8.75691 20.1663 9.16732 19.7559 9.16732 19.2497C9.16732 18.7434 8.75691 18.333 8.25065 18.333C7.74439 18.333 7.33398 18.7434 7.33398 19.2497C7.33398 19.7559 7.74439 20.1663 8.25065 20.1663Z" stroke="#fff" stroke-width="2" stroke-linecap="round" stroke-linejoin="round"/><path d="M18.3337 20.1663C18.8399 20.1663 19.2503 19.7559 19.2503 19.2497C19.2503 18.7434 18.8399 18.333 18.3337 18.333C17.8274 18.333 17.417 18.7434 17.417 19.2497C17.417 19.7559 17.8274 20.1663 18.3337 20.1663Z" stroke="#fff" stroke-width="2" stroke-linecap="round" stroke-linejoin="round"/><path d="M0.916992 0.916504H4.58366L7.04033 13.1907C7.12415 13.6127 7.35374 13.9918 7.68891 14.2616C8.02408 14.5314 8.44346 14.6747 8.87366 14.6665H17.7837C18.2139 14.6747 18.6332 14.5314 18.9684 14.2616C19.3036 13.9918 19.5332 13.6127 19.617 13.1907L21.0837 5.49984H5.50033" stroke="#fff" stroke-width="2" stroke-linecap="round" stroke-linejoin="round"/></svg>