<svg width="14" height="14" viewBox="0 0 14 14" fill="none" xmlns="http://www.w3.org/2000/svg"><path d="M6.99388 1.16675C3.77388 1.16675 1.16638 3.78008 1.16638 7.00008C1.16638 10.2201 3.77388 12.8334 6.99388 12.8334C10.2197 12.8334 12.833 10.2201 12.833 7.00008C12.833 3.78008 10.2197 1.16675 6.99388 1.16675ZM6.99972 11.6667C4.42138 11.6667 2.33305 9.57841 2.33305 7.00008C2.33305 4.42175 4.42138 2.33341 6.99972 2.33341C9.57805 2.33341 11.6664 4.42175 11.6664 7.00008C11.6664 9.57841 9.57805 11.6667 6.99972 11.6667Z" fill="#ABABAB"/><path d="M7.29138 4.08325H6.41638V7.58325L9.47888 9.42075L9.91638 8.70325L7.29138 7.14575V4.08325Z" fill="#ABABAB"/></svg>