<svg width="13" height="21" viewBox="0 0 13 21" fill="none" xmlns="http://www.w3.org/2000/svg"><path d="M12.2491 0.0043694L9.26651 0C5.91571 0 3.75027 2.02849 3.75027 5.16813V7.55098H0.751449C0.492315 7.55098 0.282471 7.7428 0.282471 7.9794V11.4319C0.282471 11.6685 0.492554 11.8601 0.751449 11.8601H3.75027V20.5718C3.75027 20.8084 3.96012 21 4.21925 21H8.13187C8.391 21 8.60085 20.8082 8.60085 20.5718V11.8601H12.1072C12.3663 11.8601 12.5761 11.6685 12.5761 11.4319L12.5776 7.9794C12.5776 7.8658 12.5281 7.757 12.4402 7.6766C12.3524 7.5962 12.2328 7.55098 12.1084 7.55098H8.60085V5.53101C8.60085 4.56013 8.85424 4.06726 10.2394 4.06726L12.2486 4.0666C12.5075 4.0666 12.7173 3.87479 12.7173 3.6384V0.432571C12.7173 0.196405 12.5077 0.00480634 12.2491 0.0043694Z" fill="#fff"/></svg>