<svg width="13" height="21" viewBox="0 0 13 21" fill="none" xmlns="http://www.w3.org/2000/svg"><path d="M12.249 0.0043694L9.26645 0C5.91565 0 3.75022 2.02849 3.75022 5.16813V7.55098H0.751395C0.492261 7.55098 0.282417 7.7428 0.282417 7.9794V11.4319C0.282417 11.6685 0.4925 11.8601 0.751395 11.8601H3.75022V20.5718C3.75022 20.8084 3.96006 21 4.2192 21H8.13181C8.39095 21 8.60079 20.8082 8.60079 20.5718V11.8601H12.1071C12.3663 11.8601 12.5761 11.6685 12.5761 11.4319L12.5775 7.9794C12.5775 7.8658 12.528 7.757 12.4402 7.6766C12.3524 7.5962 12.2327 7.55098 12.1083 7.55098H8.60079V5.53101C8.60079 4.56013 8.85418 4.06726 10.2393 4.06726L12.2485 4.0666C12.5074 4.0666 12.7173 3.87479 12.7173 3.6384V0.432571C12.7173 0.196405 12.5077 0.00480634 12.249 0.0043694Z" fill="#479561"/></svg>