<svg width="22" height="22" viewBox="0 0 22 22" fill="none" xmlns="http://www.w3.org/2000/svg"><path d="M8.25016 20.1668C8.75642 20.1668 9.16683 19.7564 9.16683 19.2502C9.16683 18.7439 8.75642 18.3335 8.25016 18.3335C7.7439 18.3335 7.3335 18.7439 7.3335 19.2502C7.3335 19.7564 7.7439 20.1668 8.25016 20.1668Z" stroke="#303918" stroke-width="2" stroke-linecap="round" stroke-linejoin="round"/><path d="M18.3332 20.1668C18.8394 20.1668 19.2498 19.7564 19.2498 19.2502C19.2498 18.7439 18.8394 18.3335 18.3332 18.3335C17.8269 18.3335 17.4165 18.7439 17.4165 19.2502C17.4165 19.7564 17.8269 20.1668 18.3332 20.1668Z" stroke="#303918" stroke-width="2" stroke-linecap="round" stroke-linejoin="round"/><path d="M0.916504 0.916504H4.58317L7.03984 13.1907C7.12366 13.6127 7.35325 13.9918 7.68842 14.2616C8.02359 14.5314 8.44298 14.6747 8.87317 14.6665H17.7832C18.2134 14.6747 18.6328 14.5314 18.9679 14.2616C19.3031 13.9918 19.5327 13.6127 19.6165 13.1907L21.0832 5.49984H5.49984" stroke="#303918" stroke-width="2" stroke-linecap="round" stroke-linejoin="round"/></svg>