<svg width="15" height="13" viewBox="0 0 15 13" fill="none" xmlns="http://www.w3.org/2000/svg"><path d="M7.15997 1.98168C6.51997 1.19208 5.44797 0.184082 3.97597 0.184082C1.87997 0.184082 0.167969 1.98168 0.167969 4.19928C0.167969 4.72008 0.263969 5.24088 0.455969 5.71128C0.791969 6.58488 2.45597 8.33208 4.77597 10.7009C5.62397 11.5577 6.34397 12.3137 6.69597 12.7337C6.82397 12.8849 6.98397 12.9521 7.17597 12.9521C7.36797 12.9521 7.52797 12.8681 7.65597 12.7337C8.00797 12.3137 8.74397 11.5745 9.57597 10.7009C11.88 8.33208 13.544 6.58488 13.896 5.71128C14.088 5.22408 14.184 4.72008 14.184 4.19928C14.152 1.98168 12.44 0.184082 10.344 0.184082C8.87197 0.184082 7.79997 1.19208 7.15997 1.98168ZM12.872 4.19928C12.872 4.55208 12.808 4.88808 12.68 5.20728C12.408 5.89608 10.056 8.29848 8.66397 9.74328C8.08797 10.3313 7.55997 10.8857 7.15997 11.3057C6.75997 10.8689 6.23197 10.3313 5.65597 9.74328C4.24797 8.29848 1.89597 5.89608 1.63997 5.20728C1.51197 4.88808 1.44797 4.55208 1.44797 4.19928C1.44797 2.72088 2.58397 1.52808 3.99197 1.52808C4.90397 1.52808 5.75197 2.14968 6.64797 3.47688C6.77597 3.66168 6.96797 3.76248 7.17597 3.76248C7.38397 3.76248 7.57597 3.66168 7.70397 3.47688C8.58397 2.14968 9.43197 1.52808 10.344 1.52808C11.736 1.52808 12.872 2.72088 12.872 4.19928Z" fill="#56B66B"/></svg>