<svg width="14" height="14" viewBox="0 0 14 14" fill="none" xmlns="http://www.w3.org/2000/svg"><path d="M6.50466 1.98337L4.33466 5.53004C4.0955 5.91504 4.3755 6.4167 4.8305 6.4167H9.16466C9.61967 6.4167 9.89966 5.91504 9.6605 5.53004L7.49633 1.98337C7.26883 1.61004 6.73216 1.61004 6.50466 1.98337Z" fill="#303918"/><path d="M10.2083 12.8334C11.6581 12.8334 12.8333 11.6581 12.8333 10.2084C12.8333 8.75863 11.6581 7.58337 10.2083 7.58337C8.75857 7.58337 7.58331 8.75863 7.58331 10.2084C7.58331 11.6581 8.75857 12.8334 10.2083 12.8334Z" fill="#303918"/><path d="M2.33333 12.5417H5.83333C6.15417 12.5417 6.41667 12.2792 6.41667 11.9583V8.45833C6.41667 8.1375 6.15417 7.875 5.83333 7.875H2.33333C2.0125 7.875 1.75 8.1375 1.75 8.45833V11.9583C1.75 12.2792 2.0125 12.5417 2.33333 12.5417Z" fill="#303918"/></svg>