<svg width="15" height="15" viewBox="0 0 15 15" fill="none" xmlns="http://www.w3.org/2000/svg"><path d="M4.06038 0H10.9396C13.1786 0 15 1.82144 15 4.06036V10.9397C15 13.1785 13.1786 15 10.9396 15H4.06027C1.82147 15 2.86102e-05 13.1785 2.86102e-05 10.9397V4.06036C2.86102e-05 1.82144 1.82147 0 4.06038 0V0ZM7.50001 11.6014C9.76159 11.6014 11.6015 9.76156 11.6015 7.49999C11.6015 5.23841 9.76159 3.39855 7.50001 3.39855C5.23844 3.39855 3.39857 5.23841 3.39857 7.49999C3.39857 9.76156 5.23844 11.6014 7.50001 11.6014ZM3.3005 4.3658C3.96883 4.3658 4.51243 3.8222 4.51243 3.15387C4.51243 2.48554 3.96883 1.94183 3.3005 1.94183C2.63216 1.94183 2.08846 2.48554 2.08846 3.15387C2.08846 3.8222 2.63216 4.3658 3.3005 4.3658Z"/><path d="M7.4996 4.27783C9.27618 4.27783 10.7217 5.72322 10.7217 7.49991C10.7217 9.27649 9.27618 10.722 7.4996 10.722C5.72291 10.722 4.27752 9.27649 4.27752 7.49991C4.27752 5.72322 5.72291 4.27783 7.4996 4.27783Z"/><path d="M3.30025 2.82129C3.48358 2.82129 3.63281 2.97052 3.63281 3.15385C3.63281 3.33719 3.48358 3.48642 3.30025 3.48642C3.1168 3.48642 2.96757 3.3373 2.96757 3.15385C2.96757 2.97041 3.1168 2.82129 3.30025 2.82129Z"/></svg>