<svg width="72" height="73" viewBox="0 0 72 73" fill="none" xmlns="http://www.w3.org/2000/svg"><circle cx="39.504" cy="32.33" r="20" transform="rotate(-15.788 39.504 32.33)" fill="#A9CFB6"/><path d="M32.967 9.14097C22.6244 10.2183 14.4365 18.6217 13.4669 28.9642C12.7128 37.2599 16.5912 45.2323 23.594 49.7571C24.9946 50.619 25.9642 51.9118 26.5029 53.4201C25.5333 54.0665 24.7791 55.2516 24.7791 56.5445C24.7791 57.6218 25.2101 58.5914 25.9642 59.2378C25.2101 59.8842 24.7791 60.8539 24.7791 61.9312C24.7791 63.9782 26.5029 65.7019 28.5499 65.7019H29.304L30.2736 69.4727C30.3814 69.9036 30.8123 70.3346 31.351 70.3346H39.6466C40.1853 70.3346 40.6162 70.0113 40.7239 69.4727L41.6936 65.7019H42.4477C44.4947 65.7019 46.2184 63.9782 46.2184 61.9312C46.2184 60.8539 45.7875 59.8842 45.0333 59.2378C45.7875 58.5914 46.2184 57.6218 46.2184 56.5445C46.2184 55.2516 45.572 54.0665 44.4947 53.4201C44.6024 53.0969 44.7101 52.7737 44.9256 52.4505C45.4643 51.3732 46.3262 50.5113 47.4035 49.8649C53.8676 45.7709 57.7461 38.7681 57.7461 31.1189C57.7461 18.1907 46.5416 7.52494 32.967 9.14097ZM38.8924 68.1799H32.2129L31.5664 65.7019H39.4311L38.8924 68.1799ZM44.0637 61.9312C44.0637 62.7931 43.3096 63.5472 42.4477 63.5472H28.6576C27.7957 63.5472 27.0416 62.7931 27.0416 61.9312C27.0416 61.0693 27.7957 60.3152 28.6576 60.3152H42.4477C43.3096 60.3152 44.0637 61.0693 44.0637 61.9312ZM28.6576 58.1605C27.7957 58.1605 27.0416 57.4063 27.0416 56.5445C27.0416 55.6826 27.7957 54.9284 28.6576 54.9284H42.4477C43.3096 54.9284 44.0637 55.6826 44.0637 56.5445C44.0637 57.4063 43.3096 58.1605 42.4477 58.1605H28.6576ZM36.63 39.1991L39.0002 37.3676C39.4311 37.0444 39.5388 36.2902 39.2156 35.8593C38.8924 35.4284 38.1383 35.3206 37.7073 35.6438L36.63 36.5057V33.5969C36.63 32.9504 36.1991 32.5195 35.5526 32.5195C34.9062 32.5195 34.4753 32.9504 34.4753 33.5969V38.9836L33.7211 38.3372C33.2902 37.9063 32.5361 38.014 32.2129 38.4449C31.7819 38.8759 31.8896 39.63 32.3206 39.9532L34.4753 41.7847V48.0334C27.257 39.7378 27.5802 32.0886 35.5526 23.6852C39.7543 28.1024 41.8013 32.304 41.8013 36.398C41.8013 40.1687 40.0775 43.9394 36.63 47.9256V39.1991ZM46.2184 47.9256C44.9256 48.7875 43.7405 49.9726 42.9864 51.3732C42.7709 51.8041 42.5554 52.3428 42.34 52.7737H36.63V51.3732C41.5858 46.3096 43.956 41.4615 43.956 36.6134C43.956 31.6576 41.4781 26.7018 36.3068 21.5305C35.8759 21.0996 35.2294 21.0996 34.7985 21.5305C24.6714 31.7654 24.5637 41.2461 34.4753 51.3732V52.7737H28.6576C28.0112 50.7267 26.6106 49.1107 24.7791 47.9256C18.4227 43.8317 14.8675 36.7212 15.6216 29.1797C16.4835 19.8067 23.9172 12.2653 33.1825 11.1879C45.4643 9.78738 55.4837 19.4835 55.4837 31.0112C55.5914 38.014 52.0361 44.2626 46.2184 47.9256Z" fill="#303918"/><path d="M40.6169 16.5748C40.0782 16.3593 39.4318 16.5748 39.2164 17.1134C39.0009 17.6521 39.2164 18.2985 39.755 18.514C43.418 20.0223 46.4346 23.0389 47.9429 26.7019C48.1584 27.2405 48.8048 27.456 49.3435 27.2405C49.8821 27.0251 50.0976 26.3787 49.8821 25.84C48.1584 21.746 44.8186 18.2985 40.6169 16.5748Z" fill="#303918"/><path d="M35.5529 6.23236C36.1993 6.23236 36.6303 5.80142 36.6303 5.15501V2.46163C36.6303 1.81522 36.1993 1.38428 35.5529 1.38428C34.9065 1.38428 34.4756 1.81522 34.4756 2.46163V5.15501C34.4756 5.80142 34.9065 6.23236 35.5529 6.23236Z" fill="#303918"/><path d="M24.6721 7.525C24.8876 8.06367 25.534 8.38688 26.0727 8.06367C26.6114 7.8482 26.9346 7.20179 26.6114 6.66312L25.534 4.18521C25.3185 3.64653 24.6721 3.32332 24.1334 3.64653C23.5948 3.862 23.2716 4.50841 23.5948 5.04709L24.6721 7.525Z" fill="#303918"/><path d="M16.4838 13.4506C16.9147 13.8815 17.5612 13.8815 17.9921 13.4506C18.423 13.0197 18.423 12.3732 17.9921 11.9423L16.1606 10.1108C15.7297 9.67986 15.0832 9.67986 14.6523 10.1108C14.2214 10.5417 14.2214 11.1882 14.6523 11.6191L16.4838 13.4506Z" fill="#303918"/><path d="M12.0665 20.1301L9.5886 19.0528C9.04992 18.8373 8.40351 19.0528 8.18804 19.5915C7.97257 20.1301 8.18804 20.7766 8.72671 20.992L11.2046 22.0694C11.7433 22.2848 12.3897 22.0694 12.6052 21.5307C12.9284 20.992 12.6052 20.3456 12.0665 20.1301Z" fill="#303918"/><path d="M9.69651 29.9341H7.00313C6.35672 29.9341 5.92578 30.365 5.92578 31.0114C5.92578 31.6578 6.35672 32.0888 7.00313 32.0888H9.69651C10.3429 32.0888 10.7739 31.6578 10.7739 31.0114C10.7739 30.4728 10.2352 29.9341 9.69651 29.9341Z" fill="#303918"/><path d="M64.1028 29.9341H61.4094C60.763 29.9341 60.332 30.365 60.332 31.0114C60.332 31.6578 60.763 32.0888 61.4094 32.0888H64.1028C64.7492 32.0888 65.1801 31.6578 65.1801 31.0114C65.1801 30.4728 64.7492 29.9341 64.1028 29.9341Z" fill="#303918"/><path d="M62.9182 19.6994C62.7027 19.1607 62.0563 18.8375 61.5176 19.1607L59.0397 20.238C58.501 20.4535 58.1778 21.0999 58.501 21.6386C58.7165 22.1773 59.3629 22.5005 59.9016 22.1773L62.3795 21.0999C62.9182 20.8845 63.1336 20.238 62.9182 19.6994Z" fill="#303918"/><path d="M54.6225 13.4504L56.5617 11.5112C56.9927 11.0802 56.9927 10.4338 56.5617 10.0029C56.1308 9.57195 55.4844 9.57195 55.0535 10.0029L53.1142 11.9421C52.6833 12.3731 52.6833 13.0195 53.1142 13.4504C53.5452 13.8814 54.1916 13.8814 54.6225 13.4504Z" fill="#303918"/><path d="M45.0334 8.17159C45.572 8.38706 46.2184 8.17159 46.4339 7.63291L47.5113 5.155C47.7267 4.61633 47.5113 3.96991 46.9726 3.75444C46.4339 3.53897 45.7875 3.75444 45.572 4.29312L44.4947 6.77103C44.2792 7.30971 44.4947 7.84838 45.0334 8.17159Z" fill="#303918"/></svg>