<svg width="62" height="65" viewBox="0 0 62 65" fill="none" xmlns="http://www.w3.org/2000/svg"><rect x="24.838" y="26" width="33.077" height="18.139" rx="2" transform="rotate(43.535 24.838 26)" fill="#A9CFB6"/><rect x="66.606" y="38.885" width="33.077" height="18.139" rx="2" transform="rotate(135.263 66.606 38.885)" fill="#A9CFB6"/><circle cx="37.844" cy="16.5" r="7.5" fill="#A9CFB6"/><path d="M56.8395 41.8656L60.5245 38.1696C60.9935 37.6992 60.9935 36.96 60.5245 36.4896L48.0625 24.0576C47.5935 23.5872 46.8565 23.5872 46.3875 24.0576L33.9255 36.624L20.3915 23.0496C19.9225 22.5792 19.1855 22.5792 18.7165 23.0496L5.91953 35.8848C5.45053 36.3552 5.45053 37.0944 5.91953 37.5648L12.7535 44.4192H2.03353C1.36353 44.4192 0.894531 44.9568 0.894531 45.5616C0.894531 46.1664 1.36353 46.7712 2.03353 46.7712H15.5005C15.6345 46.7712 15.8355 46.704 15.9695 46.6368L21.3295 44.1504C21.8655 43.8816 22.4685 43.7472 23.0045 43.7472H35.2655C35.7345 43.7472 36.1365 44.1504 36.1365 44.6208C36.1365 46.032 34.9975 47.1744 33.5905 47.1744H25.4165C24.8805 47.1744 24.4115 47.5776 24.2775 48.1152C24.1435 48.6528 24.4785 49.1904 24.9475 49.392L38.2805 55.1712C38.6825 55.3056 39.0845 55.3056 39.4195 55.0368L53.5565 44.7552C55.0305 43.68 57.1075 43.8144 58.4475 45.1584L39.2855 61.8912C39.0845 62.0928 38.8165 62.16 38.5485 62.16H33.3225C33.1885 62.16 33.0545 62.16 32.9205 62.0928L15.0315 55.104C14.8975 55.0368 14.7635 55.0368 14.6295 55.0368H2.03353C1.36353 55.0368 0.894531 55.5744 0.894531 56.1792C0.894531 56.784 1.36353 57.3888 2.03353 57.3888H14.4285L31.9825 64.3104C32.3845 64.4448 32.7865 64.5792 33.2555 64.5792H38.4815C39.3525 64.5792 40.1565 64.2432 40.7595 63.7056L59.9215 46.9728C60.3905 46.5696 60.7255 45.9648 60.7255 45.2928C60.7255 44.6208 60.5245 44.016 60.0555 43.5456C59.1845 42.6048 58.0455 42.0672 56.8395 41.8656ZM20.9945 41.7984C21.3965 39.648 23.2725 38.0352 25.4835 38.0352C27.6275 38.0352 29.3695 39.5136 29.9055 41.4624H23.0715C22.4015 41.4624 21.6645 41.5968 20.9945 41.7984ZM32.3845 41.4624C31.8485 38.1696 28.9675 35.6832 25.5505 35.6832C21.7315 35.6832 18.6495 38.7744 18.6495 42.6048C18.6495 42.672 18.6495 42.7392 18.7165 42.8064L15.8355 44.1504L8.39853 36.7584L19.5875 25.536L35.4665 41.4624C35.3995 41.4624 35.3995 41.4624 35.3325 41.4624H32.3845ZM38.6825 41.3952C38.8165 39.312 40.5585 37.632 42.7025 37.632C44.9135 37.632 46.7895 39.4464 46.7895 41.7312C46.7895 43.8816 45.1145 45.6288 43.0375 45.7632L38.6825 41.3952ZM38.6155 52.8192L31.0445 49.5264H33.6575C36.3375 49.5264 38.5485 47.3088 38.5485 44.6208C38.5485 44.5536 38.5485 44.5536 38.5485 44.4864L43.3725 49.3248L38.6155 52.8192ZM45.2485 47.9808L44.9805 47.712C47.3925 46.7712 49.1345 44.4864 49.1345 41.7312C49.1345 38.1696 46.2535 35.3472 42.7695 35.3472C40.0225 35.3472 37.6775 37.0944 36.8065 39.5136L35.5335 38.304L47.1915 26.6112L57.9785 37.4304L52.9535 42.4704C52.6855 42.6048 52.4845 42.7392 52.2165 42.9408L45.2485 47.9808Z" fill="#303918"/><path d="M39.4203 25.0657C38.8843 25.4017 38.6833 26.0737 39.0183 26.6785C39.2193 27.0817 39.6213 27.2833 40.0233 27.2833C40.2243 27.2833 40.4253 27.2161 40.6263 27.1489C44.6463 24.7969 47.1253 20.4961 47.1253 15.7921V15.7249C47.1253 15.0529 46.5893 14.5825 45.9863 14.5825C45.3163 14.5825 44.8473 15.1201 44.8473 15.7921C44.7803 19.5553 42.7703 23.1841 39.4203 25.0657Z" fill="#303918"/><path d="M28.0965 6.58547C28.2975 6.58547 28.4985 6.51827 28.6995 6.45107C31.9155 4.56947 36.2035 4.56947 39.4195 6.38387C39.9555 6.71987 40.6925 6.51827 41.0275 5.98067C41.3625 5.44307 41.1615 4.70387 40.6255 4.36787C36.6055 2.08307 31.4465 2.15027 27.4935 4.43507C26.9575 4.77107 26.7565 5.44307 27.0915 6.04787C27.2925 6.38387 27.6945 6.58547 28.0965 6.58547Z" fill="#303918"/><path d="M27.5611 27.0815C27.7621 27.2159 27.9631 27.2159 28.1641 27.2159C28.5661 27.2159 28.9681 27.0143 29.1691 26.6111C29.5041 26.0735 29.3031 25.3343 28.7671 24.9983C25.4841 23.1167 23.4071 19.4879 23.4071 15.6575C23.4071 14.9855 22.8711 14.5151 22.2681 14.5151C21.5981 14.5151 21.1291 15.0527 21.1291 15.6575C20.9951 20.4287 23.5411 24.7967 27.5611 27.0815Z" fill="#303918"/><path d="M34.0597 24.8642C39.0847 24.8642 43.1047 20.765 43.1047 15.7922C43.1047 10.7522 39.0177 6.72021 34.0597 6.72021C29.0346 6.72021 25.0146 10.8194 25.0146 15.7922C25.0146 20.765 29.1016 24.8642 34.0597 24.8642ZM34.0597 9.00501C37.7447 9.00501 40.8267 12.029 40.8267 15.7922C40.8267 19.5554 37.8117 22.5794 34.0597 22.5794C30.3076 22.5794 27.3596 19.4882 27.3596 15.725C27.3596 11.9618 30.3746 9.00501 34.0597 9.00501Z" fill="#303918"/><path d="M31.6474 20.1601H33.1884V18.7489H36.4044V17.8753H33.1884V16.7329H35.4664C37.2754 16.7329 38.3474 15.5233 38.3474 14.0449C38.3474 12.5665 37.3424 11.3569 35.4664 11.3569H31.6474V15.5233H30.7764V16.7329H31.6474V17.8753H30.7764V18.7489H31.6474V20.1601ZM33.1884 12.7009H35.2654C36.1364 12.7009 36.7394 13.2385 36.7394 14.1121C36.7394 14.9857 36.1364 15.5233 35.2654 15.5233H33.1884V12.7009Z" fill="#303918"/></svg>