<svg width="73" height="72" viewBox="0 0 73 72" fill="none" xmlns="http://www.w3.org/2000/svg"><rect x="3.422" y="60.453" width="69.578" height="11.406" rx="1" fill="#A9CFB6"/><rect x="3.422" y="41.063" width="69.578" height="11.406" rx="1" fill="#A9CFB6"/><path d="M2.89961 37C2.09961 37 1.39961 37.3 0.899609 37.8C0.399609 38.3 0.0996094 39.1 0.0996094 39.8V47.2C0.0996094 48 0.399609 48.7 0.899609 49.2C1.39961 49.7 2.19961 50 2.89961 50H2.99961V56.3H2.89961C2.09961 56.3 1.39961 56.6 0.899609 57.1C0.399609 57.6 0.0996094 58.4 0.0996094 59.1V66.5C0.0996094 67.3 0.399609 68 0.899609 68.5C1.39961 69 2.19961 69.3 2.89961 69.3H68.0996C68.8996 69.3 69.5996 69 70.0996 68.5C70.5996 68 70.8996 67.2 70.8996 66.5V59.1C70.8996 58.3 70.5996 57.6 70.0996 57.1C69.5996 56.6 68.7996 56.3 68.0996 56.3H4.79961V50H66.2996V53.8C66.2996 54 66.3996 54.2 66.5996 54.4C66.7996 54.6 66.9996 54.7 67.1996 54.7C67.3996 54.7 67.5996 54.6 67.7996 54.4C67.9996 54.2 68.0996 54 68.0996 53.8V50H68.1996C68.9996 50 69.6996 49.7 70.1996 49.2C70.6996 48.7 70.9996 47.9 70.9996 47.2V39.8C70.9996 39 70.6996 38.3 70.1996 37.8C69.6996 37.3 68.8996 37 68.1996 37H63.1996H2.89961ZM19.6996 37H6.69961H19.6996ZM31.1996 37H22.5996H31.1996ZM39.5996 37H33.1996H39.5996ZM47.5996 37H41.3996H47.5996ZM60.9996 37H49.5996H60.9996ZM67.0996 58.2H68.0996C68.3996 58.2 68.6996 58.3 68.8996 58.5C69.0996 58.7 69.1996 59 69.1996 59.3V66.7C69.1996 67 69.0996 67.3 68.8996 67.5C68.6996 67.7 68.3996 67.8 68.0996 67.8H2.89961C2.59961 67.8 2.29961 67.7 2.09961 67.5C1.89961 67.3 1.79961 67 1.79961 66.7V59.3C1.79961 59 1.89961 58.7 2.09961 58.5C2.29961 58.3 2.59961 58.2 2.89961 58.2H67.0996ZM69.1996 47.3C69.1996 47.6 69.0996 47.9 68.8996 48.1C68.6996 48.3 68.3996 48.4 68.0996 48.4H2.89961C2.59961 48.4 2.29961 48.3 2.09961 48.1C1.89961 47.9 1.79961 47.6 1.79961 47.3V39.9C1.79961 39.6 1.89961 39.3 2.09961 39.1C2.29961 38.9 2.59961 38.8 2.89961 38.8H68.0996C68.3996 38.8 68.6996 38.9 68.8996 39.1C69.0996 39.3 69.1996 39.6 69.1996 39.9V47.3Z" fill="#303918"/><path d="M9.19961 43.2003C9.19961 43.1003 9.19961 43.1003 9.09961 43.1003C9.09961 43.0003 8.99961 43.0003 8.99961 43.0003L8.89961 42.9003L8.79961 42.8003C8.69961 42.8003 8.69961 42.8003 8.59961 42.8003C8.49961 42.8003 8.29961 42.8003 8.19961 42.8003C8.09961 42.8003 7.89961 42.9003 7.79961 43.0003C7.69961 43.1003 7.69961 43.2003 7.59961 43.3003C7.59961 43.4003 7.59961 43.4003 7.59961 43.5003C7.59961 43.6003 7.59961 43.8003 7.59961 43.9003C7.59961 44.0003 7.69961 44.1003 7.79961 44.2003C7.89961 44.3003 7.99961 44.4003 8.09961 44.4003C8.19961 44.5003 8.29961 44.5003 8.49961 44.5003C8.59961 44.5003 8.59961 44.5003 8.69961 44.5003C8.79961 44.5003 8.79961 44.5003 8.89961 44.5003C8.99961 44.5003 8.99961 44.5003 8.99961 44.4003L9.09961 44.3003C9.19961 44.2003 9.29961 44.1003 9.29961 43.9003C9.29961 43.8003 9.29961 43.6003 9.29961 43.5003C9.19961 43.3003 9.19961 43.3003 9.19961 43.2003Z" fill="#303918"/><path d="M8.39922 63.9003C8.49922 63.9003 8.49922 63.9003 8.59922 63.9003C8.69922 63.9003 8.69922 63.9003 8.79922 63.9003C8.89922 63.9003 8.89922 63.9003 8.89922 63.8003L8.99922 63.7003C9.19922 63.5003 9.29922 63.3003 9.29922 63.1003C9.29922 62.9003 9.19922 62.7003 8.99922 62.5003L8.89922 62.4003L8.79922 62.3003C8.69922 62.3003 8.69922 62.3003 8.59922 62.3003C8.49922 62.3003 8.39922 62.3003 8.29922 62.3003C8.19922 62.3003 8.19922 62.3003 8.09922 62.3003C7.99922 62.3003 7.99922 62.3003 7.99922 62.4003L7.89922 62.5003C7.79922 62.6003 7.69922 62.8003 7.69922 62.9003C7.69922 63.1003 7.69922 63.2003 7.69922 63.4003C7.79922 63.6003 7.89922 63.7003 7.99922 63.8003C7.99922 63.8003 8.19922 63.9003 8.39922 63.9003Z" fill="#303918"/><path d="M62.7994 42.8001L62.6994 42.7001C62.5994 42.7001 62.4994 42.6001 62.2994 42.6001C62.0994 42.6001 61.9994 42.6001 61.8994 42.7001C61.7994 42.8001 61.6994 42.8001 61.5994 42.9001C61.4994 43.0001 61.4994 43.1001 61.3994 43.2001C61.3994 43.3001 61.3994 43.5001 61.3994 43.6001C61.3994 43.7001 61.4994 43.8001 61.5994 43.9001C61.6994 44.0001 61.7994 44.1001 61.8994 44.1001C61.9994 44.2001 62.0994 44.2001 62.2994 44.2001C62.3994 44.2001 62.3994 44.2001 62.4994 44.2001C62.5994 44.2001 62.5994 44.2001 62.6994 44.2001C62.7994 44.2001 62.7994 44.2001 62.7994 44.1001L62.8994 44.0001C63.0994 43.8001 63.1994 43.6001 63.1994 43.4001C63.1994 43.2001 63.0994 43.0001 62.8994 42.8001C62.8994 42.9001 62.8994 42.9001 62.7994 42.8001Z" fill="#303918"/><path d="M62.3 63.9002C62.4 63.9002 62.4 63.9002 62.5 63.9002C62.6 63.9002 62.6 63.9002 62.7 63.9002C62.8 63.9002 62.8 63.9002 62.8 63.8002L62.9 63.7002C63.1 63.5002 63.2 63.3002 63.2 63.1002C63.2 62.9002 63.1 62.7002 62.9 62.5002L62.8 62.4002L62.7 62.3002C62.6 62.2002 62.4 62.2002 62.3 62.2002C62.2 62.2002 62 62.3002 61.9 62.3002C61.8 62.4002 61.7 62.5002 61.6 62.6002C61.5 62.7002 61.5 62.9002 61.5 63.0002C61.5 63.1002 61.5 63.2002 61.6 63.3002C61.6 63.4002 61.7 63.5002 61.8 63.6002C61.9 63.7002 62 63.7002 62.1 63.8002C62.1 63.9002 62.2 63.9002 62.3 63.9002Z" fill="#303918"/><path d="M18.9997 19.2001C17.6997 18.3001 16.8997 17.0001 16.5997 15.5001V15.3001L17.5997 15.1001C17.9997 15.0001 18.2997 14.6001 18.2997 14.2001L17.6997 10.8001C17.5997 10.4001 17.1997 10.1001 16.7997 10.1001L6.29969 11.9001C5.89969 12.0001 5.59969 12.4001 5.59969 12.8001L6.19969 16.2001C6.29969 16.6001 6.69969 16.9001 7.09969 16.9001L8.09969 16.7001V16.9001C8.2997 18.4001 7.99969 19.9001 6.99969 21.2001C5.79969 22.8001 5.29969 24.7001 5.59969 26.7001L7.49969 38.3001C7.59969 37.9001 9.8997 37.6001 13.5997 38.2001L20.7997 37.9001C23.3997 39.7001 24.4997 36.4001 24.2997 38.2001L21.9997 24.0001C21.6997 22.0001 20.5997 20.3001 18.9997 19.2001ZM7.59969 15.2001L7.29969 13.4001L16.2997 11.9001L16.5997 13.7001L15.5997 13.9001L8.59969 15.0001L7.59969 15.2001ZM22.5997 37.6001C22.8997 39.3001 21.1997 38.1001 19.4997 38.3001L13.7997 38.1001C10.2997 37.6001 8.89969 36.9001 9.09969 38.3001L7.49969 28.4001L20.7997 26.3001L22.5997 37.6001ZM20.4997 24.7001L7.29969 26.8001L7.19969 26.3001C6.99969 24.8001 7.29969 23.3001 8.29969 22.0001C9.49969 20.4001 9.99969 18.5001 9.69969 16.5001V16.3001L15.0997 15.4001V15.6001C15.3997 17.5001 16.4997 19.2001 18.0997 20.4001C19.3997 21.3001 20.1997 22.6001 20.3997 24.1001L20.4997 24.7001Z" fill="#303918"/><path d="M11.6994 38.4999L10.9994 34.0999C10.8994 33.6999 10.4994 33.3999 10.0994 33.3999C9.69941 33.4999 9.39941 33.8999 9.39941 34.2999L9.99941 38.2999" fill="#303918"/><path d="M51.9999 38.0999C52.5999 38.4999 51.1999 37.6999 51.6999 32.3999C51.9999 29.7999 53.0999 26.0999 56.6999 22.5999C57.7999 21.4999 59.1999 20.3999 60.6999 19.4999C62.2999 18.4999 64.2999 18.7999 65.4999 20.0999L67.2999 16.8999C67.4999 16.5999 67.7999 16.3999 68.1999 16.3999C68.4999 16.3999 68.7999 16.5999 68.9999 16.9999C68.9999 17.0999 68.9999 17.0999 69.0999 17.1999L69.1999 17.9999L69.4999 18.0999C69.6999 18.0999 69.7999 18.2999 69.8999 18.3999L70.2999 19.1999C70.3999 19.3999 70.3999 19.6999 70.2999 19.8999L70.4999 19.9999C70.5999 19.9999 70.6999 20.0999 70.7999 20.1999L71.2999 20.8999C71.2999 20.8999 71.2999 20.8999 71.2999 20.9999C71.4999 21.3999 71.3999 21.9999 71.1999 22.3999C70.9999 22.6999 70.6999 22.7999 70.3999 22.7999H70.2999L66.6999 21.9999C66.7999 22.5999 66.7999 23.0999 66.6999 23.6999C66.4999 24.6999 65.7999 25.5999 64.9999 26.0999C61.7999 28.0999 59.7999 30.9999 59.4999 33.4999C59.0999 37.2999 59.7999 36.6999 60.2999 37.7999L51.9999 38.0999ZM58.8999 37.3999C57.9999 37.1999 57.9999 35.3999 58.1999 33.6999C58.5999 30.5999 60.6999 27.1999 64.1999 24.9999C64.3999 24.8999 64.4999 24.7999 64.6999 24.5999C65.0999 24.1999 65.2999 23.7999 65.3999 23.2999C65.5999 22.5999 65.3999 21.8999 65.0999 21.1999C64.2999 19.8999 62.5999 19.4999 61.3999 20.2999C59.9999 21.1999 58.6999 22.1999 57.5999 23.2999C54.2999 26.5999 53.1999 29.7999 52.8999 32.3999C52.3999 35.6999 53.0999 36.7999 53.3999 37.6999L58.8999 37.3999ZM68.7999 19.0999L68.3999 18.9999C68.1999 18.8999 67.9999 18.6999 67.9999 18.4999V18.0999L66.4999 20.6999L70.0999 21.4999L69.7999 20.9999L69.1999 20.7999C68.9999 20.7999 68.8999 20.5999 68.7999 20.4999C68.5999 20.1999 68.7999 19.8999 68.8999 19.5999C68.8999 19.5999 68.8999 19.4999 68.9999 19.4999L68.7999 19.0999ZM57.5999 24.2999C57.9999 23.8999 58.4999 23.4999 58.8999 23.0999C59.1999 22.8999 59.4999 22.8999 59.6999 23.1999C59.8999 23.4999 59.8999 23.7999 59.5999 23.9999C58.8999 24.5999 58.1999 25.1999 57.5999 25.8999C57.3999 26.1999 56.9999 26.1999 56.7999 25.9999C56.5999 25.7999 56.4999 25.3999 56.6999 25.1999C56.9999 24.8999 57.2999 24.5999 57.5999 24.2999ZM55.6999 26.5999C55.8999 26.3999 56.1999 26.3999 56.4999 26.4999C56.7999 26.6999 56.7999 27.0999 56.6999 27.2999C55.6999 28.7999 54.9999 30.4999 54.7999 32.2999C54.7999 32.5999 54.4999 32.8999 54.0999 32.7999C53.7999 32.7999 53.4999 32.4999 53.5999 32.0999C53.7999 30.2999 54.4999 28.3999 55.6999 26.5999C55.5999 26.5999 55.5999 26.6999 55.6999 26.5999ZM53.5999 33.4999C53.6999 33.3999 53.7999 33.2999 53.9999 33.2999C54.2999 33.2999 54.5999 33.5999 54.5999 33.8999C54.5999 34.2999 54.5999 34.6999 54.6999 35.0999C54.6999 35.3999 54.4999 35.6999 54.1999 35.7999C53.8999 35.7999 53.5999 35.5999 53.4999 35.2999C53.3999 34.8999 53.3999 34.3999 53.3999 33.9999C53.4999 33.7999 53.4999 33.5999 53.5999 33.4999ZM54.0999 37.8999C53.9999 37.6999 54.0999 37.3999 54.1999 37.2999C54.2999 37.1999 54.2999 37.1999 54.3999 37.1999C54.6999 37.0999 55.0999 37.2999 55.1999 37.5999" fill="#303918"/><path d="M55.6999 26.5999C55.8999 26.3999 56.1999 26.3999 56.4999 26.4999C56.7999 26.6999 56.7999 27.0999 56.6999 27.2999C55.6999 28.7999 54.9999 30.4999 54.7999 32.2999C54.7999 32.5999 54.4999 32.8999 54.0999 32.7999C53.7999 32.7999 53.4999 32.4999 53.5999 32.0999C53.7999 30.2999 54.4999 28.3999 55.6999 26.5999ZM55.6999 26.5999C55.5999 26.6999 55.5999 26.5999 55.6999 26.5999ZM54.0999 37.8999C53.9999 37.6999 54.0999 37.3999 54.1999 37.2999C54.2999 37.1999 54.2999 37.1999 54.3999 37.1999C54.6999 37.0999 55.0999 37.2999 55.1999 37.5999M51.9999 38.0999C52.5999 38.4999 51.1999 37.6999 51.6999 32.3999C51.9999 29.7999 53.0999 26.0999 56.6999 22.5999C57.7999 21.4999 59.1999 20.3999 60.6999 19.4999C62.2999 18.4999 64.2999 18.7999 65.4999 20.0999L67.2999 16.8999C67.4999 16.5999 67.7999 16.3999 68.1999 16.3999C68.4999 16.3999 68.7999 16.5999 68.9999 16.9999C68.9999 17.0999 68.9999 17.0999 69.0999 17.1999L69.1999 17.9999L69.4999 18.0999C69.6999 18.0999 69.7999 18.2999 69.8999 18.3999L70.2999 19.1999C70.3999 19.3999 70.3999 19.6999 70.2999 19.8999L70.4999 19.9999C70.5999 19.9999 70.6999 20.0999 70.7999 20.1999L71.2999 20.8999C71.2999 20.8999 71.2999 20.8999 71.2999 20.9999C71.4999 21.3999 71.3999 21.9999 71.1999 22.3999C70.9999 22.6999 70.6999 22.7999 70.3999 22.7999H70.2999L66.6999 21.9999C66.7999 22.5999 66.7999 23.0999 66.6999 23.6999C66.4999 24.6999 65.7999 25.5999 64.9999 26.0999C61.7999 28.0999 59.7999 30.9999 59.4999 33.4999C59.0999 37.2999 59.7999 36.6999 60.2999 37.7999L51.9999 38.0999ZM58.8999 37.3999C57.9999 37.1999 57.9999 35.3999 58.1999 33.6999C58.5999 30.5999 60.6999 27.1999 64.1999 24.9999C64.3999 24.8999 64.4999 24.7999 64.6999 24.5999C65.0999 24.1999 65.2999 23.7999 65.3999 23.2999C65.5999 22.5999 65.3999 21.8999 65.0999 21.1999C64.2999 19.8999 62.5999 19.4999 61.3999 20.2999C59.9999 21.1999 58.6999 22.1999 57.5999 23.2999C54.2999 26.5999 53.1999 29.7999 52.8999 32.3999C52.3999 35.6999 53.0999 36.7999 53.3999 37.6999L58.8999 37.3999ZM68.7999 19.0999L68.3999 18.9999C68.1999 18.8999 67.9999 18.6999 67.9999 18.4999V18.0999L66.4999 20.6999L70.0999 21.4999L69.7999 20.9999L69.1999 20.7999C68.9999 20.7999 68.8999 20.5999 68.7999 20.4999C68.5999 20.1999 68.7999 19.8999 68.8999 19.5999C68.8999 19.5999 68.8999 19.4999 68.9999 19.4999L68.7999 19.0999ZM57.5999 24.2999C57.9999 23.8999 58.4999 23.4999 58.8999 23.0999C59.1999 22.8999 59.4999 22.8999 59.6999 23.1999C59.8999 23.4999 59.8999 23.7999 59.5999 23.9999C58.8999 24.5999 58.1999 25.1999 57.5999 25.8999C57.3999 26.1999 56.9999 26.1999 56.7999 25.9999C56.5999 25.7999 56.4999 25.3999 56.6999 25.1999C56.9999 24.8999 57.2999 24.5999 57.5999 24.2999ZM53.5999 33.4999C53.6999 33.3999 53.7999 33.2999 53.9999 33.2999C54.2999 33.2999 54.5999 33.5999 54.5999 33.8999C54.5999 34.2999 54.5999 34.6999 54.6999 35.0999C54.6999 35.3999 54.4999 35.6999 54.1999 35.7999C53.8999 35.7999 53.5999 35.5999 53.4999 35.2999C53.3999 34.8999 53.3999 34.3999 53.3999 33.9999C53.4999 33.7999 53.4999 33.5999 53.5999 33.4999Z" stroke="#303918" stroke-width=".5" stroke-miterlimit="10"/><path d="M37.5998 12.6001L35.5998 16.4001C35.4998 16.6001 35.5998 16.9001 35.7998 17.0001C35.9998 17.1001 36.2998 17.0001 36.3998 16.8001L38.1998 13.4001L38.9998 13.8001C38.7998 14.7001 39.3998 15.6001 40.2998 15.8001C40.8998 15.9001 41.4998 15.7001 41.8998 15.3001L44.0998 16.5001C43.4998 18.2001 44.3998 20.1001 46.0998 20.8001C47.4998 21.3001 49.0998 20.8001 49.8998 19.6001L52.5998 21.0001L47.5998 30.6001C47.4998 30.8001 47.5998 31.1001 47.7998 31.2001C47.9998 31.3001 48.2998 31.2001 48.3998 31.0001L53.6998 21.0001C53.7998 20.8001 53.6998 20.5001 53.4998 20.4001L49.9998 18.6001C49.7998 18.5001 49.4998 18.6001 49.3998 18.8001C48.7998 20.0001 47.2998 20.4001 46.1998 19.8001C44.9998 19.2001 44.5998 17.7001 45.1998 16.6001C45.2998 16.4001 45.1998 16.1001 44.9998 16.0001L38.2998 12.5001C37.9998 12.3001 37.6998 12.4001 37.5998 12.6001ZM40.2998 14.9001C40.0998 14.8001 39.8998 14.6001 39.8998 14.3001L40.9998 14.9001C40.7998 15.0001 40.4998 15.0001 40.2998 14.9001Z" fill="#303918" stroke="#303918" stroke-miterlimit="10"/><path d="M43.9997 37.4999L25.7997 37.0999L28.1997 32.4999C29.8997 33.0999 31.7997 32.1999 32.3997 30.4999C32.8997 29.0999 32.3997 27.5999 31.1997 26.6999L35.0997 19.2999C35.1997 19.0999 35.0997 18.7999 34.8997 18.6999C34.6997 18.5999 34.3997 18.6999 34.2997 18.8999L30.1997 26.6999C30.0997 26.8999 30.1997 27.1999 30.3997 27.2999C31.5997 27.8999 31.9997 29.3999 31.3997 30.4999C30.7997 31.6999 29.2997 32.0999 28.1997 31.4999C27.9997 31.3999 27.6997 31.4999 27.5997 31.6999L24.9997 36.5999C24.8997 36.7999 24.5997 37.4999 24.7997 37.5999L25.2997 37.4999C25.4997 37.5999 44.9997 37.5999 45.0997 37.3999L47.1997 33.3999C47.2997 33.1999 47.1997 32.8999 46.9997 32.7999C46.7997 32.6999 46.4997 32.7999 46.3997 32.9999" fill="#303918"/><path d="M43.9997 37.4999L25.7997 37.0999L28.1997 32.4999C29.8997 33.0999 31.7997 32.1999 32.3997 30.4999C32.8997 29.0999 32.3997 27.5999 31.1997 26.6999L35.0997 19.2999C35.1997 19.0999 35.0997 18.7999 34.8997 18.6999C34.6997 18.5999 34.3997 18.6999 34.2997 18.8999L30.1997 26.6999C30.0997 26.8999 30.1997 27.1999 30.3997 27.2999C31.5997 27.8999 31.9997 29.3999 31.3997 30.4999C30.7997 31.6999 29.2997 32.0999 28.1997 31.4999C27.9997 31.3999 27.6997 31.4999 27.5997 31.6999L24.9997 36.5999C24.8997 36.7999 24.5997 37.4999 24.7997 37.5999L25.2997 37.4999C25.4997 37.5999 44.9997 37.5999 45.0997 37.3999L47.1997 33.3999C47.2997 33.1999 47.1997 32.8999 46.9997 32.7999C46.7997 32.6999 46.4997 32.7999 46.3997 32.9999" stroke="#303918" stroke-miterlimit="10"/><path d="M35.3999 25.1002C36.1999 25.5002 37.2999 25.2002 37.6999 24.4002C38.0999 23.6002 37.7999 22.5002 36.9999 22.1002C36.1999 21.7002 35.0999 22.0002 34.6999 22.8002C34.1999 23.7002 34.4999 24.7002 35.3999 25.1002ZM36.4999 22.9002C36.8999 23.1002 36.9998 23.6002 36.7998 24.0002C36.5998 24.4002 36.0999 24.5002 35.6999 24.3002C35.2999 24.1002 35.1999 23.6002 35.3999 23.2002C35.6999 22.9002 36.1999 22.7002 36.4999 22.9002Z" fill="#303918"/><path d="M38.1002 19.6998C37.7002 20.4998 38.0002 21.5998 38.8002 21.9998C39.6002 22.3998 40.7002 22.0998 41.1002 21.2998C41.5002 20.4998 41.2002 19.3998 40.4002 18.9998C39.6002 18.4998 38.6002 18.8998 38.1002 19.6998ZM40.3002 20.8998C40.1002 21.2998 39.6002 21.3998 39.2002 21.1998C38.8002 20.9998 38.7002 20.4998 38.9002 20.0998C39.1002 19.6998 39.6002 19.5998 40.0002 19.7998C40.4002 19.9998 40.6002 20.4998 40.3002 20.8998Z" fill="#303918"/><path d="M45.1002 23.3999C44.7002 24.1999 45.0002 25.2999 45.8002 25.6999C46.6002 26.0999 47.7002 25.7999 48.1002 24.9999C48.5002 24.1999 48.2002 23.0999 47.4002 22.6999C46.6002 22.1999 45.5002 22.4999 45.1002 23.3999ZM47.3002 24.4999C47.1002 24.8999 46.6002 24.9999 46.2002 24.7998C45.8002 24.5998 45.7002 24.0999 45.9002 23.6999C46.1002 23.2999 46.6002 23.1999 47.0002 23.3999C47.4002 23.6999 47.5002 24.1999 47.3002 24.4999Z" fill="#303918"/><path d="M40.2 29.4C40.3 29.2 40.2 28.9 40 28.8C39.8 28.7 39.5 28.8 39.4 29C39 29.8 39.3 30.9 40.1 31.3C40.9 31.7 42 31.4 42.4 30.6C42.5 30.4 42.4 30.1 42.2 30C42 29.9 41.7 30 41.6 30.2C41.4 30.6 40.9 30.7 40.5 30.5C40.1 30.3 40 29.8 40.2 29.4Z" fill="#303918"/><path d="M34.6004 30.2999C34.7004 30.0999 34.6004 29.7999 34.4004 29.6999C34.2004 29.5999 33.9004 29.6999 33.8004 29.8999C33.4004 30.6999 33.7004 31.7999 34.5004 32.1999C35.3004 32.5999 36.4004 32.2999 36.8004 31.4999C36.9004 31.2999 36.8004 30.9999 36.6004 30.8999C36.4004 30.7999 36.1004 30.8999 36.0004 31.0999C35.8004 31.4999 35.3004 31.5999 34.9004 31.3999C34.5004 31.1999 34.4004 30.6999 34.6004 30.2999Z" fill="#303918"/><path d="M34.1002 35.8002C33.7002 36.6002 34.0002 37.7002 34.8002 38.1002C35.6002 38.5002 36.7002 38.2002 37.1002 37.4002C37.5002 36.6002 37.2002 35.5002 36.4002 35.1002C35.6002 34.6002 34.6002 34.9002 34.1002 35.8002ZM36.4002 37.0002C36.2002 37.4002 35.7002 37.5002 35.3002 37.3002C34.9002 37.1002 34.8002 36.6002 35.0002 36.2002C35.2002 35.8002 35.7002 35.7002 36.1002 35.9002C36.4002 36.1002 36.6002 36.6002 36.4002 37.0002Z" fill="#303918"/></svg>