<svg width="14" height="14" viewBox="0 0 14 14" fill="none" xmlns="http://www.w3.org/2000/svg"><path d="M6.0925 10.2175C6.385 10.51 6.8575 10.51 7.15 10.2175L9.8425 7.525C10.135 7.2325 10.135 6.76 9.8425 6.4675L7.15 3.775C6.8575 3.4825 6.385 3.4825 6.0925 3.775C5.8 4.0675 5.8 4.54 6.0925 4.8325L7.5025 6.25H1C0.5875 6.25 0.25 6.5875 0.25 7C0.25 7.4125 0.5875 7.75 1 7.75H7.5025L6.0925 9.16C5.8 9.4525 5.8075 9.9325 6.0925 10.2175ZM12.25 0.25H1.75C0.9175 0.25 0.25 0.925 0.25 1.75V4C0.25 4.4125 0.5875 4.75 1 4.75C1.4125 4.75 1.75 4.4125 1.75 4V2.5C1.75 2.0875 2.0875 1.75 2.5 1.75H11.5C11.9125 1.75 12.25 2.0875 12.25 2.5V11.5C12.25 11.9125 11.9125 12.25 11.5 12.25H2.5C2.0875 12.25 1.75 11.9125 1.75 11.5V10C1.75 9.5875 1.4125 9.25 1 9.25C0.5875 9.25 0.25 9.5875 0.25 10V12.25C0.25 13.075 0.925 13.75 1.75 13.75H12.25C13.075 13.75 13.75 13.075 13.75 12.25V1.75C13.75 0.925 13.075 0.25 12.25 0.25Z" fill="#7D7D7D"/></svg>