<svg width="12" height="12" viewBox="0 0 12 12" fill="none" xmlns="http://www.w3.org/2000/svg"><path d="M3.72498 6.78176L5.37581 5.13093L1.76498 1.52593C1.48498 1.24593 1.00081 1.32176 0.825814 1.68343C0.411648 2.5526 0.563314 3.6201 1.28081 4.34343L3.72498 6.78176ZM7.67998 5.72593C8.57248 6.1401 9.82665 5.84843 10.7541 4.92093C11.8683 3.80676 12.0841 2.20843 11.2266 1.35093C10.375 0.499264 8.77665 0.709264 7.65665 1.82343C6.72915 2.75093 6.43748 4.0051 6.85165 4.8976L1.56665 10.1826C1.33915 10.4101 1.33915 10.7776 1.56665 11.0051C1.79415 11.2326 2.16165 11.2326 2.38915 11.0051L5.99998 7.40593L9.60498 11.0109C9.83248 11.2384 10.2 11.2384 10.4275 11.0109C10.655 10.7834 10.655 10.4159 10.4275 10.1884L6.82248 6.58343L7.67998 5.72593Z" fill="#303918"/></svg>