<svg width="12" height="12" viewBox="0 0 12 12" fill="none" xmlns="http://www.w3.org/2000/svg"><path d="M8.47323 3.52663C7.79073 2.84413 6.89823 2.49996 5.9999 2.49996V5.99996L3.52657 8.47329C4.89157 9.83829 7.10823 9.83829 8.47907 8.47329C9.84407 7.10829 9.84407 4.89163 8.47323 3.52663ZM5.9999 0.166626C2.7799 0.166626 0.166565 2.77996 0.166565 5.99996C0.166565 9.21996 2.7799 11.8333 5.9999 11.8333C9.2199 11.8333 11.8332 9.21996 11.8332 5.99996C11.8332 2.77996 9.2199 0.166626 5.9999 0.166626ZM5.9999 10.6666C3.42157 10.6666 1.33323 8.57829 1.33323 5.99996C1.33323 3.42163 3.42157 1.33329 5.9999 1.33329C8.57823 1.33329 10.6666 3.42163 10.6666 5.99996C10.6666 8.57829 8.57823 10.6666 5.9999 10.6666Z" fill="#303918"/></svg>