<svg width="23" height="23" viewBox="0 0 23 23" fill="none" xmlns="http://www.w3.org/2000/svg"><path d="M17.0207 15.0832H16.0002L15.6386 14.7344C17.1886 12.9261 17.9894 10.459 17.5502 7.83692C16.9432 4.24608 13.9465 1.37858 10.3298 0.939415C4.86608 0.267748 0.267748 4.86608 0.939415 10.3298C1.37858 13.9465 4.24608 16.9432 7.83692 17.5502C10.459 17.9894 12.9261 17.1886 14.7344 15.6386L15.0832 16.0002V17.0207L20.5727 22.5102C21.1023 23.0398 21.9677 23.0398 22.4973 22.5102C23.0269 21.9807 23.0269 21.1152 22.4973 20.5857L17.0207 15.0832ZM9.27066 15.0832C6.05441 15.0832 3.45816 12.4869 3.45816 9.27066C3.45816 6.05441 6.05441 3.45816 9.27066 3.45816C12.4869 3.45816 15.0832 6.05441 15.0832 9.27066C15.0832 12.4869 12.4869 15.0832 9.27066 15.0832Z"/></svg>