<svg width="31" height="31" viewBox="0 0 31 31" fill="none" xmlns="http://www.w3.org/2000/svg"><path d="M20.0207 18.0832H19.0002L18.6386 17.7344C20.1886 15.9261 20.9894 13.459 20.5502 10.8369C19.9432 7.24608 16.9465 4.37858 13.3298 3.93941C7.86608 3.26775 3.26775 7.86608 3.93941 13.3298C4.37858 16.9465 7.24608 19.9432 10.8369 20.5502C13.459 20.9894 15.9261 20.1886 17.7344 18.6386L18.0832 19.0002V20.0207L23.5727 25.5102C24.1023 26.0398 24.9677 26.0398 25.4973 25.5102C26.0269 24.9807 26.0269 24.1152 25.4973 23.5857L20.0207 18.0832ZM12.2707 18.0832C9.05441 18.0832 6.45816 15.4869 6.45816 12.2707C6.45816 9.05441 9.05441 6.45816 12.2707 6.45816C15.4869 6.45816 18.0832 9.05441 18.0832 12.2707C18.0832 15.4869 15.4869 18.0832 12.2707 18.0832Z"/></svg>