<svg width="27" height="17" viewBox="0 0 27 17" fill="none" xmlns="http://www.w3.org/2000/svg"><path fill-rule="evenodd" clip-rule="evenodd" d="M23.2373 10.5755C24.133 11.45 25.0783 12.2727 25.8815 13.2353C26.2364 13.663 26.5723 14.1044 26.8293 14.6009C27.1935 15.3066 26.8637 16.0831 26.2309 16.1253L22.2975 16.1235C21.283 16.2077 20.4736 15.7993 19.7931 15.1056C19.2486 14.5509 18.7442 13.9606 18.2206 13.3871C18.0059 13.1528 17.7812 12.9322 17.5128 12.7579C16.9758 12.4094 16.5097 12.5161 16.2029 13.0761C15.8903 13.6457 15.8194 14.2765 15.7887 14.9113C15.7466 15.8375 15.4666 16.081 14.5362 16.1234C12.5479 16.2172 10.6608 15.9164 8.90781 14.9133C7.36229 14.029 6.16381 12.7807 5.12066 11.3675C3.08963 8.61556 1.53426 5.59167 0.136359 2.48307C-0.178298 1.7827 0.0518178 1.40674 0.824577 1.39344C2.10778 1.36851 3.3908 1.37028 4.67551 1.39166C5.19704 1.39929 5.5423 1.69842 5.74368 2.19112C6.43793 3.89818 7.28742 5.5223 8.35372 7.02772C8.63769 7.42852 8.92724 7.82931 9.33957 8.11141C9.79572 8.42376 10.143 8.32024 10.3576 7.8121C10.4938 7.48991 10.5534 7.14287 10.5841 6.79778C10.6858 5.61057 10.6991 4.42539 10.5208 3.24235C10.4114 2.50401 9.99549 2.02603 9.25875 1.88631C8.8828 1.81508 8.93877 1.67518 9.12081 1.46059C9.43697 1.09049 9.73433 0.860107 10.3271 0.860107H14.7725C15.4723 0.99823 15.6277 1.31262 15.7235 2.01681L15.7274 6.95471C15.7197 7.22732 15.8635 8.03627 16.3545 8.21671C16.7475 8.34516 17.0066 8.03077 17.2424 7.78159C18.3067 6.65194 19.0663 5.31694 19.745 3.93456C20.0462 3.32671 20.3051 2.69544 20.5561 2.06471C20.742 1.59667 21.0338 1.36638 21.561 1.37658L25.8394 1.3804C25.9663 1.3804 26.0946 1.38226 26.2175 1.40328C26.9384 1.52615 27.136 1.83628 26.9133 2.54029C26.5625 3.64483 25.8799 4.56529 25.2124 5.49001C24.4989 6.47727 23.7358 7.43074 23.0283 8.42385C22.3782 9.33074 22.4298 9.78787 23.2373 10.5755Z" fill="#479561"/></svg>