<svg width="54" height="53" viewBox="0 0 54 53" fill="none" xmlns="http://www.w3.org/2000/svg"><path d="M37.125 0H16.875C7.55663 0 0 7.41669 0 16.5625V36.4375C0 45.5833 7.55663 53 16.875 53H37.125C46.4434 53 54 45.5833 54 36.4375V16.5625C54 7.41669 46.4434 0 37.125 0ZM48.9375 36.4375C48.9375 42.8306 43.6387 48.0312 37.125 48.0312H16.875C10.3612 48.0312 5.0625 42.8306 5.0625 36.4375V16.5625C5.0625 10.1694 10.3612 4.96875 16.875 4.96875H37.125C43.6387 4.96875 48.9375 10.1694 48.9375 16.5625V36.4375Z" fill="#fff"/><path d="M27 13.25C19.5446 13.25 13.5 19.1827 13.5 26.5C13.5 33.8173 19.5446 39.75 27 39.75C34.4554 39.75 40.5 33.8173 40.5 26.5C40.5 19.1827 34.4554 13.25 27 13.25ZM27 34.7812C22.3492 34.7812 18.5625 31.0646 18.5625 26.5C18.5625 21.9321 22.3492 18.2188 27 18.2188C31.6507 18.2188 35.4375 21.9321 35.4375 26.5C35.4375 31.0646 31.6507 34.7812 27 34.7812Z" fill="#fff"/><path d="M41.5127 14.0218C42.5062 14.0218 43.3116 13.2314 43.3116 12.2563C43.3116 11.2812 42.5062 10.4907 41.5127 10.4907C40.5193 10.4907 39.7139 11.2812 39.7139 12.2563C39.7139 13.2314 40.5193 14.0218 41.5127 14.0218Z" fill="#fff"/></svg>