<svg width="14" height="14" viewBox="0 0 14 14" fill="none" xmlns="http://www.w3.org/2000/svg"><path d="M7 0.775743L8.87401 3.88971C8.98572 4.07532 9.16792 4.2077 9.37896 4.25657L12.9196 5.0766L10.5372 7.82116C10.3952 7.98475 10.3256 8.19894 10.3443 8.41476L10.6585 12.0355L7.31207 10.6178C7.11261 10.5333 6.88739 10.5333 6.68793 10.6178L3.34147 12.0355L3.65571 8.41476C3.67444 8.19894 3.60485 7.98475 3.46284 7.82116L1.08038 5.0766L4.62104 4.25657C4.83209 4.2077 5.01428 4.07532 5.12599 3.88971L7 0.775743Z" stroke="#53B162" stroke-width=".8"/><path fill-rule="evenodd" clip-rule="evenodd" d="M6.99986 0.375732V10.9544C6.94677 10.9544 6.89369 10.965 6.84382 10.9861L3.49737 12.4038C3.21975 12.5214 2.91676 12.3013 2.94283 12.0009L3.25706 8.38016C3.26643 8.27225 3.23163 8.16516 3.16063 8.08337L0.77817 5.3388C0.580527 5.11112 0.69626 4.75493 0.989985 4.6869L4.53065 3.86688C4.63617 3.84244 4.72727 3.77625 4.78312 3.68345L6.65713 0.569478C6.73487 0.440314 6.86736 0.375732 6.99986 0.375732Z" fill="#53B162"/></svg>