<svg width="24" height="22" viewBox="0 0 24 22" fill="none" xmlns="http://www.w3.org/2000/svg"><path d="M12.3901 18.2336L12.156 18.7861L12.3901 18.2336C12.1408 18.128 11.8592 18.128 11.6099 18.2336L11.844 18.7861L11.6099 18.2336L5.63053 20.7668L6.192 14.2973C6.21541 14.0275 6.12842 13.7598 5.95091 13.5553L5.49781 13.9486L5.95091 13.5553L1.69399 8.65137L8.02037 7.18617L7.88499 6.60164L8.02037 7.18617C8.28417 7.12507 8.51192 6.9596 8.65155 6.72759L12 1.16361L15.3485 6.72759C15.4881 6.9596 15.7158 7.12507 15.9796 7.18617L16.0969 6.67996L15.9796 7.18617L22.306 8.65137L18.0491 13.5553C17.8716 13.7598 17.7846 14.0275 17.808 14.2973L18.3695 20.7668L12.3901 18.2336ZM18.3982 21.0979C18.3982 21.0978 18.3982 21.0977 18.3982 21.0975L18.3982 21.0979Z"/></svg>