<svg width="130" height="131" viewBox="-1 -1 132 132" fill="none" xmlns="http://www.w3.org/2000/svg"><path clip-rule="evenodd" d="M54.1667 77.3707L74.9667 56.5067L111.367 19.9947L113.967 22.6027C124.367 33.4693 130 49.9867 130 65.2C130 101.277 100.967 130.4 65 130.4C29.0333 130.4 0 101.277 0 65.2C0 29.1227 29.0333 0 65 0C76.2667 0 87.5333 3.04267 97.5 8.69333L88.8333 17.3867C81.4667 13.9093 73.2333 11.736 65 11.736C35.5333 11.736 11.7 35.6427 11.7 65.2C11.7 94.7573 35.5333 118.664 65 118.664C94.4667 118.664 118.3 94.7573 118.3 65.2C118.3 55.2027 115.7 46.0747 110.5 37.3813L54.1667 94.3227L26.4333 66.0693L34.6667 57.376L54.1667 77.3707Z"/></svg>