<svg width="11" height="11" viewBox="0 0 11 11" fill="none" xmlns="http://www.w3.org/2000/svg"><path d="M5.49525 0.916992C2.96525 0.916992 0.916504 2.97033 0.916504 5.50033C0.916504 8.03033 2.96525 10.0837 5.49525 10.0837C8.02984 10.0837 10.0832 8.03033 10.0832 5.50033C10.0832 2.97033 8.02984 0.916992 5.49525 0.916992ZM5.49984 9.16699C3.474 9.16699 1.83317 7.52616 1.83317 5.50033C1.83317 3.47449 3.474 1.83366 5.49984 1.83366C7.52567 1.83366 9.1665 3.47449 9.1665 5.50033C9.1665 7.52616 7.52567 9.16699 5.49984 9.16699Z"/><path d="M5.729 3.20801H5.0415V5.95801L7.44775 7.40176L7.7915 6.83801L5.729 5.61426V3.20801Z"/></svg>