<svg width="18" height="12" viewBox="0 0 18 12" fill="none" xmlns="http://www.w3.org/2000/svg"><path d="M8.99975 0.375C5.24976 0.375 2.04726 2.7075 0.749756 6C2.04726 9.2925 5.24976 11.625 8.99975 11.625C12.7498 11.625 15.9523 9.2925 17.2498 6C15.9523 2.7075 12.7498 0.375 8.99975 0.375ZM8.99975 9.75C6.92976 9.75 5.24976 8.07 5.24976 6C5.24976 3.93 6.92976 2.25 8.99975 2.25C11.0698 2.25 12.7498 3.93 12.7498 6C12.7498 8.07 11.0698 9.75 8.99975 9.75ZM8.99975 3.75C7.75476 3.75 6.74976 4.755 6.74976 6C6.74976 7.245 7.75476 8.25 8.99975 8.25C10.2448 8.25 11.2498 7.245 11.2498 6C11.2498 4.755 10.2448 3.75 8.99975 3.75Z" fill="#fff"/></svg>