<svg width="27" height="17" viewBox="0 0 27 17" fill="none" xmlns="http://www.w3.org/2000/svg"><path clip-rule="evenodd" d="M23.2373 10.5755C24.133 11.4499 25.0783 12.2726 25.8815 13.2352C26.2364 13.663 26.5723 14.1044 26.8293 14.6008C27.1935 15.3065 26.8637 16.0831 26.2309 16.1252L22.2975 16.1235C21.283 16.2076 20.4736 15.7992 19.7931 15.1056C19.2486 14.5509 18.7442 13.9605 18.2206 13.3871C18.0059 13.1527 17.7812 12.9322 17.5128 12.7579C16.9758 12.4093 16.5097 12.516 16.2029 13.0761C15.8903 13.6457 15.8194 14.2764 15.7887 14.9112C15.7466 15.8375 15.4666 16.081 14.5362 16.1234C12.5479 16.2171 10.6608 15.9163 8.90781 14.9133C7.36229 14.029 6.16381 12.7807 5.12066 11.3674C3.08963 8.61551 1.53426 5.59163 0.136359 2.48303C-0.178298 1.78266 0.0518178 1.4067 0.824577 1.39339C2.10778 1.36847 3.3908 1.37024 4.67551 1.39162C5.19704 1.39925 5.5423 1.69838 5.74368 2.19108C6.43793 3.89814 7.28742 5.52226 8.35372 7.02768C8.63769 7.42847 8.92724 7.82927 9.33957 8.11137C9.79572 8.42372 10.143 8.3202 10.3576 7.81206C10.4938 7.48986 10.5534 7.14283 10.5841 6.79774C10.6858 5.61053 10.6991 4.42535 10.5208 3.2423C10.4114 2.50396 9.99549 2.02599 9.25875 1.88627C8.8828 1.81504 8.93877 1.67514 9.12081 1.46055C9.43697 1.09045 9.73433 0.860065 10.3271 0.860065H14.7725C15.4723 0.998188 15.6277 1.31258 15.7235 2.01676L15.7274 6.95467C15.7197 7.22728 15.8635 8.03623 16.3545 8.21667C16.7475 8.34512 17.0066 8.03073 17.2424 7.78154C18.3067 6.6519 19.0663 5.31689 19.745 3.93451C20.0462 3.32667 20.3051 2.6954 20.5561 2.06467C20.742 1.59663 21.0338 1.36634 21.561 1.37654L25.8394 1.38035C25.9663 1.38035 26.0946 1.38222 26.2175 1.40324C26.9384 1.52611 27.136 1.83624 26.9133 2.54025C26.5625 3.64478 25.8799 4.56525 25.2124 5.48997C24.4989 6.47723 23.7358 7.43069 23.0283 8.42381C22.3782 9.3307 22.4298 9.78783 23.2373 10.5755Z"/></svg>