<svg width="14" height="13" viewBox="0 0 14 13" fill="none" xmlns="http://www.w3.org/2000/svg"><path d="M6.65728 0.569488C6.81274 0.31116 7.18726 0.311161 7.34272 0.569489L9.21674 3.68346C9.27259 3.77626 9.36369 3.84245 9.46921 3.86689L13.0099 4.68691C13.3036 4.75494 13.4193 5.11113 13.2217 5.33881L10.8392 8.08337C10.7682 8.16517 10.7334 8.27226 10.7428 8.38017L11.057 12.0009C11.0831 12.3013 10.7801 12.5215 10.5025 12.4038L7.15604 10.9861C7.0563 10.9439 6.9437 10.9439 6.84396 10.9861L3.49751 12.4038C3.21989 12.5215 2.9169 12.3013 2.94297 12.0009L3.25721 8.38017C3.26657 8.27226 3.23177 8.16517 3.16077 8.08337L0.778313 5.33881C0.580669 5.11113 0.696402 4.75494 0.990127 4.68691L4.53079 3.86689C4.63631 3.84245 4.72741 3.77626 4.78326 3.68346L6.65728 0.569488Z" fill="#53B162"/></svg>